<?xml version="1.0" standalone="no"?><!DOCTYPE svg PUBLIC "-//W3C//DTD SVG 1.1//EN" "http://www.w3.org/Graphics/SVG/1.1/DTD/svg11.dtd"><svg class="icon" width="32px" height="32.00px" viewBox="0 0 1024 1024" version="1.1" xmlns="http://www.w3.org/2000/svg"><path fill="#f00" d="M512 545.194667c126.208 0 238.976 74.026667 290.346667 186.88 34.901333 76.8-23.466667 163.925333-107.904 163.925333H329.514667c-84.394667 0-142.762667-87.168-107.818667-163.925333A318.805333 318.805333 0 0 1 512 545.194667z m0 64a254.848 254.848 0 0 0-232.064 149.418666c-15.36 33.792 11.136 73.386667 49.578667 73.386667h364.928c38.485333 0 65.024-39.594667 49.664-73.386667A254.890667 254.890667 0 0 0 512 609.194667z m0-481.237334a188.458667 188.458667 0 1 1-0.042667 376.96 188.458667 188.458667 0 0 1 0-376.96z m0 64a124.458667 124.458667 0 1 0 0.085333 248.96A124.458667 124.458667 0 0 0 512 192z"  /></svg>